<svg id="a0190df7-5dcd-49dc-9c4f-5945e3b84a94" data-name="Layer 1" xmlns="http://www.w3.org/2000/svg" xmlns:xlink="http://www.w3.org/1999/xlink" viewBox="0 0 502.42 666.54"><defs><clipPath id="b77a4c25-1df2-4b14-9f01-9d46279424a2" transform="translate(2.42 -1.55)"><path d="M330.06,19.93S196.31-38.16,88.74,44,1.53,205.18,1.53,205.18L12.15,332.4S15.73,352.47,28,361.65c0,0-3.06,93.32,27.53,156s65,91.79,65,91.79,36,60.42,113.49,60.42c68.85,0,104.12-46.91,128.08-60.86,0,0,82.34-70.59,91.52-128.72s-4.95-81.95-4.95-81.95,23.71,14.53,32.89-6.12,21.41-35.95,15.3-96.38c0,0,1.52-83.37-27.54-68.07,0,0-8.41-3.06-20.65,17.59,0,0,9.18-144.56-37.48-173.63C411.18,71.76,401.16,50.7,330.06,19.93Z" fill="none"/></clipPath><clipPath id="b00839d7-9546-43a5-9bfa-a0ea6f5ba386" transform="translate(2.42 -1.55)"><path d="M138.81,499.13s39.65,1.48,55.24.45,99.87-24.17,99.87-24.17,2.89,9.47-8.1,16S246,522.8,206.9,523.14,156.47,522.11,138.81,499.13Z" fill="none"/></clipPath><clipPath id="ec20fc22-cfdc-4bf2-b34a-e085d8681c15" transform="translate(2.42 -1.55)"><path d="M231.4,331.71s7.39-18.39,41.34-19.39S320.27,322,320.27,322,301,339.46,255.1,337.51l-10.32-3.12S223.65,340.86,231.4,331.71Z" fill="none"/></clipPath><clipPath id="bc041659-95a2-4aa9-a53f-4cfdcd8090fe" transform="translate(2.42 -1.55)"><path d="M68.32,350.21a42.83,42.83,0,0,1,38.08-18.4c26.07,1.37,31.77,13.05,31.77,13.05s8.39.61,7.09,5.76-12.25,2-12.25,2S95.42,364.83,68.32,350.21Z" fill="none"/></clipPath></defs><path d="M314.32,19.7S199.82-34,92.25,48.2s-90.72,157-90.72,157L12.15,332.4S15.73,352.47,28,361.65c0,0-3.06,93.32,27.53,156s63.24,81.92,63.24,81.92S157,664,224.3,662.49C273.51,661.38,318,640.73,341,616.92c0,0,93.57-72.51,103.32-123,11.15-57.79,4.35-95.54,4.35-95.54s23.71,14.53,32.89-6.12,23.06-36.65,16.94-97.07c0,0,3.39-71.73-26.7-68.48,0,0-10.89-2-23.13,18.69,0,0,1.68-139.69-37.48-173.63C411.18,71.76,385.42,50.47,314.32,19.7Z" transform="translate(2.42 -1.55)" fill="#dda692"/><path d="M246.06,399.66l61.64,36.91,8.72,5.22a.79.79,0,0,0,.8-1.37l-61.64-36.91-8.72-5.22a.79.79,0,0,0-.8,1.37Z" transform="translate(2.42 -1.55)" fill="#b78879"/><path d="M132.7,429.36a58.76,58.76,0,0,0-9.38,6.61,93.2,93.2,0,0,0-18.6,20.87,99.63,99.63,0,0,0-9.6,18.93c-.37,1,1.17,1.38,1.53.43,6.61-17.25,18.22-33.17,33.69-43.51,1-.68,2.08-1.37,3.17-1.95.9-.48.1-1.86-.81-1.38Z" transform="translate(2.42 -1.55)" fill="#b78879"/><path d="M442.84,290c2.82-13.09,6.87-26.84,13.74-38.39,3.32-5.58,9.05-13,16.36-9.36,7.67,3.83,9.1,15,9.64,22.56a97.08,97.08,0,0,1-.51,19.28c-.13,1,1.46,1,1.6,0a97.88,97.88,0,0,0,.57-18.11c-.45-8-1.69-18.5-8.5-23.82-15.3-12-26,19.06-29.22,28.69a180.91,180.91,0,0,0-5.22,18.72c-.22,1,1.32,1.43,1.54.43Z" transform="translate(2.42 -1.55)" fill="#b78879"/><path d="M477.3,317c-3.6,5.74-5.16,13.53-3.23,20.07,1.47,5,6.14,8.55,5.74,14.05-.29,4-2.75,7.53-5.44,10.32-5.39,5.62-13.62,10.32-21.31,11.32-3.11.4-6.41,0-8.93-2-3.58-2.87-4.69-7.86-5.17-12.18-.11-1-1.7-1-1.59,0,.76,6.8,3.38,14.44,11,15.73,5.64.95,11.5-1.41,16.4-4,8.22-4.34,19.58-13.06,16.07-23.64-1.06-3.17-3.56-5.52-4.77-8.64a20.11,20.11,0,0,1-1-10.2,26.72,26.72,0,0,1,3.58-10c.54-.87-.84-1.67-1.38-.8Z" transform="translate(2.42 -1.55)" fill="#b78879"/><path d="M438.17,302.19c-.36-.05.12,0,.21,0l1,.2a21.49,21.49,0,0,1,3.32,1.09,15.47,15.47,0,0,1,7.67,6.62c4.85,8.87-.53,20.13-6.93,26.65a30.58,30.58,0,0,1-5.67,4.72c-.87.54-.07,1.91.81,1.37a33.83,33.83,0,0,0,13.5-16.54c3.29-8.92,1.54-19.12-7.45-23.67a20.32,20.32,0,0,0-6.45-2.08c-1-.13-1,1.47,0,1.6Z" transform="translate(2.42 -1.55)" fill="#b78879"/><path d="M444.14,284.53c-.19.25.28-.35.4-.5.44-.54.89-1.07,1.35-1.6a56.17,56.17,0,0,1,4.6-4.66c3.13-2.8,8-6.71,12.53-5.33,3.18,1,4.77,4.45,5.72,7.35.32,1,1.86.55,1.54-.42-1-3-2.49-6.22-5.35-7.83a8.55,8.55,0,0,0-6.83-.43c-5,1.6-9.17,5.62-12.63,9.41-.94,1-1.86,2.1-2.71,3.21-.62.81.76,1.61,1.38.8Z" transform="translate(2.42 -1.55)" fill="#b78879"/><path d="M138.41,357.9a130.37,130.37,0,0,1-23.69,10.16c-12.25,3.93-28.93,7.71-40-1.06-.79-.63-1.93.49-1.12,1.13,11.07,8.74,27.08,5.85,39.52,2.1a130.91,130.91,0,0,0,26.12-11,.8.8,0,0,0-.8-1.38Z" transform="translate(2.42 -1.55)" fill="#b78879"/><path d="M144.57,358.19c-4.74,9.37-14.47,16.65-23.79,20.88a68.55,68.55,0,0,1-33.52,5.5c-6.73-.55-14.33-2.42-18.81-7.9a12.8,12.8,0,0,1-3.11-7.59.8.8,0,0,0-1.59,0c0,8.8,9.23,14.29,16.69,16.05,19.49,4.59,42.63-1.58,57.07-15.44A41.49,41.49,0,0,0,146,359c.46-.91-.92-1.72-1.38-.8Z" transform="translate(2.42 -1.55)" fill="#b78879"/><path d="M331.65,342.49a85.71,85.71,0,0,1-14.27,11.71c-9.25,6.24-21.22,12.56-32.67,12.57-7.74,0-15.82-2.17-23.38-3.67q-8.17-1.64-16.34-3.43c-1-.23-1.42,1.31-.42,1.53q9.06,2,18.16,3.79c7.24,1.42,15.31,3.72,22.76,3.36,17.33-.84,35.54-12.42,47.29-24.73.71-.74-.42-1.87-1.13-1.13Z" transform="translate(2.42 -1.55)" fill="#b78879"/><path d="M320.27,322.75a287.81,287.81,0,0,0,33,.38c16.61-.7,35.21-2,50.06-10.18.9-.5.09-1.88-.8-1.38-15.15,8.35-34.29,9.45-51.21,10a286.61,286.61,0,0,1-31-.45c-1-.08-1,1.52,0,1.59Z" transform="translate(2.42 -1.55)" fill="#b78879"/><path d="M213.87,328.73c-4,10.72-2.86,24.49,5.6,32.73,4.49,4.37,10.39,6.89,16.39,8.39a.8.8,0,0,0,.43-1.53c-9.37-2.35-18.18-7.54-21.46-17.08a33.54,33.54,0,0,1-.51-18.29,27.92,27.92,0,0,1,1.09-3.8c.36-1-1.18-1.38-1.54-.42Z" transform="translate(2.42 -1.55)" fill="#b78879"/><path d="M323.92,334.55a19.38,19.38,0,0,1-4.32,5.3,38.65,38.65,0,0,1-16.74,8.65,66.07,66.07,0,0,1-17,1.86.8.8,0,0,0,0,1.59c13.48.12,29.33-3,38-14.38a14.17,14.17,0,0,0,1.46-2.22c.46-.91-.92-1.72-1.38-.8Z" transform="translate(2.42 -1.55)" fill="#b78879"/><path d="M229.07,319.49c8-3.83,17-6,25.65-7.35a106,106,0,0,1,61.7,8.45c.92.43,1.73-.94.8-1.38-27-12.56-61.67-14.25-89-1.09-.93.44-.12,1.82.8,1.37Z" transform="translate(2.42 -1.55)" fill="#b78879"/><path d="M231.4,331.71s7.39-18.39,41.34-19.39S320.27,322,320.27,322,301,339.46,255.1,337.51l-10.32-3.12S223.65,340.86,231.4,331.71Z" transform="translate(2.42 -1.55)" fill="#f4e1dc"/><path d="M314.32,319.51a67.73,67.73,0,0,0,17.58-4.65c11.59-4.58,21.94-11.93,29.2-22.16.59-.84-.79-1.63-1.38-.8-7.19,10.13-17.62,17.39-29.16,21.78a65.1,65.1,0,0,1-16.24,4.23c-1,.11-1,1.7,0,1.6Z" transform="translate(2.42 -1.55)" fill="#b78879"/><g clip-path="url(#b77a4c25-1df2-4b14-9f01-9d46279424a2)"><path d="M408.85,487.09s-44.53,29.19-84.24-4.46c0,0-6.32-21.79-24.61-29.61-29.86-12.76-42.06,0-42.06,0s-26.6,3.57-36.33,9.33a393.43,393.43,0,0,1-49.77,10.21s-18.67,2.85-26.58,2.85c0,0-5-2.71-24,7.22s-17.5,29.62-17.5,29.62l-1.75,19L94.91,540l-13.65-4.85-11.46-11L52.19,486.29,29.73,445.9s10.12,54.15,15.41,60.71,21.58,50.59,31.27,51.92c0,0,12.7,50.07,45.06,55.79,0,0-12.86,10.61,31.62,30.87s62.25,25.65,97.17,21.69S362.09,609,362.09,609l77.6-88.16s30.55-49.84,9-122.51c0,0-9.76-53.57-9.32-68.93s5.25-69.27,5.25-69.27l-.45-10.1,7.42-9.25,2.26-42.15L429.5,82.6,382.8,45.94l-67.37-32S234.71-6.41,174.37,5.05s-77.56,33.1-77.56,33.1S3.26,111.35.58,155.7c-2.72,45-3,103.57-3,103.57L8.14,285.89,24,162.56S79.49,52.89,137.19,46.73c0,0,60.11-17.36,107.59-10.69s10.32,1.12,10.32,1.12-42.59,11.12-54.45,18.91c0,0,66-10,98.29-7.79,0,0-40.25,10-50.17,27.82,0,0,38-17.8,65.2-12.24l27.25,5.56S292.4,81.66,289.55,90.56c0,0,41.21-11.12,72-5.56L387,87.32s-26.42,4.07-39.12,23.37c0,0,24.89-13.21,32-10.67,0,0-18.8,13.72-23.37,19.31S352,129,352,129s8.64-12.19,18.8-11.68c0,0-13.72,14.22-14.73,20.32s-6.06,20.53-3,39.48c0,0,12.77,27.31,25.11,32.15s39.69,47.32,39.69,47.32l18.71,190.12S443.59,468.63,408.85,487.09Z" transform="translate(2.42 -1.55)" fill="#eaeaea"/></g><path d="M244.38,341.66c6.06,3.08,13.66,3.83,20.32,4,19.73.44,38.91-6.64,56-16,.9-.5.09-1.87-.81-1.38-16.82,9.24-35.71,16.23-55.16,15.8-6.36-.14-13.71-.82-19.52-3.76-.91-.47-1.72.91-.8,1.37Z" transform="translate(2.42 -1.55)" fill="#b78879"/><path d="M68.32,350.21a42.83,42.83,0,0,1,38.08-18.4c26.07,1.37,31.77,13.05,31.77,13.05s8.39.61,7.09,5.76-12.25,2-12.25,2S95.42,364.83,68.32,350.21Z" transform="translate(2.42 -1.55)" fill="#f4e1dc"/><path d="M39.41,340.5A29.28,29.28,0,0,0,47,346.12a35.53,35.53,0,0,0,20.55,4.07c1-.1,1-1.69,0-1.59a34,34,0,0,1-20-4,27.29,27.29,0,0,1-7-5.23c-.7-.76-1.82.37-1.13,1.13Z" transform="translate(2.42 -1.55)" fill="#b78879"/><path d="M38.78,351.74A29.35,29.35,0,0,0,48,354.65a35.84,35.84,0,0,0,20.74-2.89c.93-.43.12-1.8-.8-1.38A33.91,33.91,0,0,1,47.72,353a27.65,27.65,0,0,1-8.13-2.63c-.9-.49-1.71.88-.81,1.38Z" transform="translate(2.42 -1.55)" fill="#b78879"/><path d="M158.14,543.31c59.79,21.65,104.23-4.73,125.3-17.8,23.78-14.76,17.43-55.21,17.43-55.21-3.63,1.09-61.38,4-72.64,3.64s-32,10.89-32,10.89c-16.71-4.72-47.34,2.07-47.34,2.07s-15.82,7-17.67,12.4C131.26,499.3,141.82,537.4,158.14,543.31Z" transform="translate(2.42 -1.55)" fill="#dda692"/><path d="M138.81,499.13s22.56-19.82,59.91-7.54c0,0,12.18-12.65,35.63-11.58s63.83-7.95,63.83-7.95l-7.75,33.21C265.8,541.79,209,551.12,182.51,544.49c-35-8.79-43.7-45.36-43.7-45.36" transform="translate(2.42 -1.55)" fill="#aa6761"/><path d="M138.81,499.13s39.65,1.48,55.24.45,94-22.57,94-22.57,2.79,11.54-3.23,15.05c-11.05,6.42-38.81,30.74-77.92,31.08S156.47,522.11,138.81,499.13Z" transform="translate(2.42 -1.55)" fill="#381709"/><path d="M240.83,394.45c2-1.12,11.17,13.45,11.93,14.94,4.47,8.82-2.41,16.48-9.38,21.19-2.79,1.89-4.91,3-7.26,3.43-5.65,1.05-10.21,4.58-13.76,9-3.13,3.9-4.78,8.75-8.08,12.48A28.34,28.34,0,0,1,202.67,463c-7.42,2.72-16.6,3.69-24.21,1.1-5.81-2-7.05-7.65-12.2-10.59-5.86-3.34-13-4.54-19.59-5.35-1.79-.23-5,.15-6.67-.61-5.33-2.46-6.9-11.46-5.82-16.63,1.53-7.34,7.72-11.66,15-12.49a.83.83,0,0,0,.79-.8l3.89-60.27c.06-1-1.53-1-1.59,0l-3.5,54.3a25.16,25.16,0,0,0-.27,4.15c.14,1.43-.75,1.87.59,1-.94.59-3.11.58-4.18.91a20.77,20.77,0,0,0-6.79,3.37c-7.87,6.14-7.36,18.8-1,25.75,2.7,3,4.73,2.32,8.59,2.76,6.3.73,13.07,1.83,18.78,4.74,4.58,2.33,5.68,6.86,9.71,9.48s9.19,3.22,13.84,3.25c11.18.08,24-4,30-14.06,4.07-6.76,8-14.36,16.12-16.91,1.72-.54,3.37-.55,5-1.19,8.33-3.22,18.59-12.85,16.39-22.57-.59-2.59-10.74-22-15.55-19.26a.8.8,0,0,0,.81,1.37Z" transform="translate(2.42 -1.55)" fill="#b78879"/><g clip-path="url(#b00839d7-9546-43a5-9bfa-a0ea6f5ba386)"><path d="M156.65,495.75l3.28,27.43s44.51,7,64.37,1.61,61.09-30.5,61.09-30.5L280.07,476Z" transform="translate(2.42 -1.55)" fill="#fff"/></g><path d="M69.12,349.94a32.78,32.78,0,0,1,5.67-14.06c7.29-10.36,19.79-13.52,31.9-12.5,13.36,1.13,26.22,6.3,38.17,12.09.91.45,1.72-.93.8-1.37-16.89-8.19-39-17.25-57.9-10.14a31.92,31.92,0,0,0-18.7,19.69,29.05,29.05,0,0,0-1.54,6.29c-.11,1,1.48,1,1.6,0Z" transform="translate(2.42 -1.55)" fill="#b78879"/><g clip-path="url(#ec20fc22-cfdc-4bf2-b34a-e085d8681c15)"><path d="M263.65,313.27a16.12,16.12,0,0,0-.84,22.65A15.81,15.81,0,0,0,285.28,337a16.11,16.11,0,0,0,.84-22.65A15.82,15.82,0,0,0,263.65,313.27Z" transform="translate(2.42 -1.55)" fill="#5a8d3e"/><path d="M267.11,315.46a11,11,0,0,0-.57,15.41,10.76,10.76,0,0,0,15.28.71,11,11,0,0,0,.57-15.4A10.76,10.76,0,0,0,267.11,315.46Z" transform="translate(2.42 -1.55)" fill="#1d1618"/><path d="M281.11,315.55a2.63,2.63,0,0,0-.13,3.69,2.57,2.57,0,0,0,3.66.17,2.63,2.63,0,0,0,.14-3.69A2.6,2.6,0,0,0,281.11,315.55Z" transform="translate(2.42 -1.55)" fill="#fff"/><path d="M254.14,323.14c-4.63,1.47-4.47,3.48.35,4.49a39.7,39.7,0,0,0,17.12-.85c4.63-1.47,4.47-3.48-.35-4.49A39.69,39.69,0,0,0,254.14,323.14Z" transform="translate(2.42 -1.55)" fill="#fff"/></g><path d="M229.63,335.35c6.76-14.1,25-20.6,39.36-21.71,12.83-1,26.42,0,38.75,3.82,4.07,1.27,8.54,2.81,12,5.46,1.14.87,2.25-1.06,1.13-1.93-8.7-6.71-22.05-8.51-32.55-9.39-18.83-1.6-39.62.24-53.89,14a31.6,31.6,0,0,0-6.68,8.61c-.62,1.29,1.3,2.42,1.92,1.13Z" transform="translate(2.42 -1.55)" fill="#a06555"/><g clip-path="url(#bc041659-95a2-4aa9-a53f-4cfdcd8090fe)"><path d="M98,332.92a16.11,16.11,0,0,0-.84,22.65,15.83,15.83,0,0,0,22.47,1.05,16.13,16.13,0,0,0,.84-22.66A15.82,15.82,0,0,0,98,332.92Z" transform="translate(2.42 -1.55)" fill="#5a8d3e"/><path d="M101.46,335.11a11,11,0,0,0-.57,15.4,10.76,10.76,0,0,0,15.28.71,11,11,0,0,0,.57-15.4A10.76,10.76,0,0,0,101.46,335.11Z" transform="translate(2.42 -1.55)" fill="#1d1618"/><path d="M115.35,334.84a2.15,2.15,0,0,0-.12,3,2.11,2.11,0,0,0,3,.14,2.14,2.14,0,0,0,.11-3A2.1,2.1,0,0,0,115.35,334.84Z" transform="translate(2.42 -1.55)" fill="#fff"/><path d="M86.69,341c-5.28,1.3-5.19,3.31.19,4.5a50.27,50.27,0,0,0,19.29-.18c5.28-1.3,5.2-3.32-.18-4.51A50.32,50.32,0,0,0,86.69,341Z" transform="translate(2.42 -1.55)" fill="#fff"/></g><path d="M69.28,350.77c5.33-8.67,15.48-14.79,25.21-16.93s20.5-1,29.72,2.38c4.44,1.61,9.21,4.07,12.14,7.92.44.58.76,1.37,1.39,1.74,2.16,1.27,7.16.16,6.44,4.44-.23,1.4,1.91,2,2.15.59.5-2.92-.91-4.89-3.57-6.06a11.11,11.11,0,0,0-3.43-1c-1.59-.13-.39.06-.29.24-1.86-3.31-5.39-5.8-8.63-7.57-16.16-8.83-38.6-8.23-53.39,3a38.55,38.55,0,0,0-9.66,10.11c-.76,1.23,1.17,2.35,1.92,1.13Z" transform="translate(2.42 -1.55)" fill="#a06555"/><path d="M145.74,301.85c2.54-3,4-7.18,4.82-11,2.25-10.29-.27-20.83-4.6-30.22-.43-.93-1.8-.13-1.38.8,4.19,9.1,6.65,19.43,4.36,29.38-.77,3.34-2.28,7.45-4.32,9.89-.66.78.46,1.92,1.12,1.13Z" transform="translate(2.42 -1.55)" fill="#b78879"/><path d="M212.14,293.45c.28.22-.33-.28-.44-.38a17.57,17.57,0,0,1-1.29-1.3,25.16,25.16,0,0,1-3.8-5.66c-3.84-7.72-3.88-16.71-2.23-25,.2-1-1.34-1.43-1.54-.43-1.72,8.67-1.65,17.9,2.27,26a22.35,22.35,0,0,0,6.22,8.18c.82.61,1.62-.77.81-1.38Z" transform="translate(2.42 -1.55)" fill="#b78879"/><path d="M85.24,227.11c21.5-3.79,43.11-7.42,64.81-9.85a124.48,124.48,0,0,1,14.82-1.13c4.9.06,9.49,2,14.38,2.63,8.43,1,17.64,1,25.73-1.94a106.4,106.4,0,0,1,16.79-4.72c19.34-3.61,40.94-6.36,60.54-3.23,1,.16,1.44-1.37.43-1.53-16.38-2.62-33.74-.8-50.06,1.42a157.59,157.59,0,0,0-21,4c-8.08,2.25-15.08,5-23.76,5-7.12,0-13.43-2.09-20.29-3-4.18-.58-8.71.13-12.87.52-13.51,1.3-26.95,3.38-40.35,5.49Q99.59,223,84.82,225.58c-1,.17-.58,1.71.42,1.53Z" transform="translate(2.42 -1.55)" fill="#b78879"/><path d="M85.24,204.1c21.5-3.8,43.11-7.43,64.81-9.85a120.43,120.43,0,0,1,14.82-1.13c4.9.06,9.49,2,14.38,2.62,8.43,1,17.64,1,25.73-1.93a106.4,106.4,0,0,1,16.79-4.72c19.34-3.61,40.94-6.36,60.54-3.23,1,.16,1.44-1.38.43-1.54-16.38-2.61-33.74-.8-50.06,1.43a156,156,0,0,0-21,3.95c-8.08,2.25-15.08,5-23.76,5-7.12,0-13.43-2.1-20.29-3.05-4.18-.57-8.71.13-12.87.53-13.51,1.29-26.95,3.37-40.35,5.48-9.88,1.56-19.75,3.18-29.59,4.92-1,.18-.58,1.72.42,1.54Z" transform="translate(2.42 -1.55)" fill="#b78879"/><path d="M202.11,280.21s74.46-6.15,86.58-6.15,47.56,18.45,47.56,18.45a14.44,14.44,0,0,1-11.64,8.94c-8.82,1-35.92-6.42-35.92-6.42s-68.25,7.51-74.94,6.36S202.67,297.08,202.11,280.21Z" transform="translate(2.42 -1.55)" fill="#eaeaea"/><path d="M190.07,256.61c-.9,6-1.52,12.13-1.91,18.22a119.89,119.89,0,0,0-.2,14.31c.21,3.58.54,7.46,2.19,10.71.46.92,1.83.11,1.37-.8-1.64-3.25-1.85-7.24-2-10.81a123.62,123.62,0,0,1,.28-13.88c.38-5.79,1-11.59,1.81-17.33.15-1-1.38-1.43-1.53-.42Z" transform="translate(2.42 -1.55)" fill="#b78879"/><path d="M39,299.16s32.52-8.81,50.84-9.34,59.67-5.69,59.67-5.69,10.7,20.08-15,23c-24.12,2.78-57,2.78-57,2.78S27.6,326.16,39,299.16Z" transform="translate(2.42 -1.55)" fill="#eaeaea"/><path d="M157,260.06c.85,5.74,1.43,11.54,1.81,17.33a123.62,123.62,0,0,1,.28,13.88c-.16,3.57-.37,7.56-2,10.81-.47.91.91,1.72,1.37.8,1.65-3.25,2-7.13,2.19-10.71a119.89,119.89,0,0,0-.2-14.31c-.39-6.09-1-12.18-1.91-18.22-.15-1-1.68-.58-1.53.42Z" transform="translate(2.42 -1.55)" fill="#b78879"/></svg>