<svg id="e50aaa0b-d7a2-4fd6-9753-a6e7c25aabe8" data-name="b41114a4-e9f1-4f9b-a963-a606e95cbffe" xmlns="http://www.w3.org/2000/svg" xmlns:xlink="http://www.w3.org/1999/xlink" viewBox="0 0 500 487.48"><defs><clipPath id="a4d5a885-3c9c-47b3-a461-18ec50a93e09" transform="translate(0)"><path d="M155.29,144.83s13.13-16.62,33.65-10.78c0,0,9.16,4.07,5.78,5.57s-3.76.6-3.76.6S170.47,152.33,155.29,144.83Z" fill="none"/></clipPath><clipPath id="b2b0682d-1733-45f1-a20d-abda510480be" transform="translate(0)"><path d="M202.45,226.47s-7.93-20.87,10.92-27.54c0,0,11.65-8.12,21-3.19,0,0,7.44-8.12,13.06-7.54s10.54,0,11.12,9.28-2.32,23.77-2.32,23.77l9,29s3,19.13-21.54,24.06-46.3,4.35-45.43-29.28Z" fill="none"/></clipPath><clipPath id="aee6f89a-cfe8-43c7-83e5-d71303f9f83d" transform="translate(0)"><path d="M236,128.45s-1.47-16.57,17.27-11.7c0,0,7.59,5.3,4.52,6.75-11.27,5.32-18.69,5.19-18.69,5.19S235,129.09,236,128.45Z" fill="none"/></clipPath><clipPath id="be1da0ac-cae6-4b58-a429-5a38b47ab367" transform="translate(0)"><path d="M420.48,193.13s12.46,22.8,9,42.25c-1,5.76-7.22,20.94-15.76,14.53,0,0-10.45,21.83-30.38,16.14,0,0,2,15.82-15.82,11.55a63.74,63.74,0,0,1-28.34-15s-42.85,37-48.54,51.25-46.92,82.58-46.92,82.58S185.3,507.17,119.53,484.39c0,0-56.92.35-79.22-59.44,0,0-11.63-34.88-13.77-49.83,0,0,0-49.11,86.89-37.73,0,0,13.48,19.94,13.48,24.92l11.39,14.95,84-82L276,234.89l38-40c2.13-6.42,40.74-22.61,40.74-22.61s14.27-17.08,24.22-16.37,14.93-.76,18.49,0,18.51-8.52,24.92-3.54,12.81,13.53,30.61,17.08,40.57,0,40.57,0,14.63,7.21,0,21.38S420.48,193.13,420.48,193.13Z" fill="none"/></clipPath></defs><polygon points="170.47 272.97 185.97 335.31 229.44 287.24 170.47 272.97" fill="#b5776d"/><path d="M148,33.45s4.75,10.37,34.13,2.16,50.13,10.1,50.13,10.1S253.7,70.37,262.58,94.1c7.8,20.84,5.94,30.17,5.94,30.17s5.17,14.58,6.46,26.24,2.16,54-3,90.29c0,0,4.44,67.38-60,52.26s-98.55-112.74-98.55-112.74Z" transform="translate(0)" fill="#eda98e"/><path d="M13,318.89S-5.87,355.41,34.93,408l116.89-29.29V318.89L80.24,262.65Z" transform="translate(0)" fill="#222430"/><path d="M420.48,203.11s16.34,6.6,20.34,6.16c12.79-1.43,22.12,11.66,7.15,20.64a24.94,24.94,0,0,1-27.49-.71Z" transform="translate(0)" fill="#b5776d"/><path d="M154.94,10.49s-24.87-6.21-39.86,7.83C100.7,31.78,89.93,31.84,65.25,93.06c0,0-23.49,54.1-17.79,76.88s-.71,75.45-.71,75.45-9.8,8.86-34.59,49.7c-25.95,42.77-2.29,58.63-2.29,58.63s21.22-53.52,41.86-64.91,31.05-12.1,31.05-12.1,1.65,26.24,18.76,34.83,41.54,7.36,46.05,56.73l39.63-38.67s1.18-42.21-16.62-62.86c0,0-49-35.59-40.54-105.35L154.23,43.23s30.87-7.12,33.46-.71c0,0,7.32-12.78,25.83-5.66s35.61,37,44.75,52.64l5.49,32s7.92,17.8,7.92,22.78,5.7,27.76,0,54.81.43,40.24.43,40.24l25.15-26.8a19.48,19.48,0,0,1-9.92-9.63c-3.56-7.37,20.42-10.22-3-81.4S241.07,24,222.57,14.76,188.4-10.87,154.94,10.49Z" transform="translate(0)" fill="#f7c6a4"/><path d="M214.17,181.57s1.44-2.16,5-1.68,5,1.68,5,1.68.48,1.45-3.37,1.21S213.68,185.18,214.17,181.57Z" transform="translate(0)" fill="#b5776d"/><path d="M208.21,166c-2.78,4.78-5.23,12.22-1.87,17.26a10.87,10.87,0,0,0,6.14,4.13.35.35,0,0,0,.19-.67,10.26,10.26,0,0,1-5.62-3.66,9.34,9.34,0,0,1-1.57-5.23,22.26,22.26,0,0,1,2.35-9.52,21,21,0,0,1,1-2,.35.35,0,0,0-.61-.36Z" transform="translate(0)" fill="#b5776d"/><path d="M198,121.41a47.44,47.44,0,0,1,5.26,8.76c2.47,5.25,4.47,11.78,1.61,17.23-.2.37.41.7.6.32,2.82-5.37,1.16-11.7-1.19-16.95a47.7,47.7,0,0,0-5.67-9.69c-.26-.33-.87,0-.61.33Z" transform="translate(0)" fill="#b5776d"/><path d="M223.94,116.2c-1.82,5-3.59,11.12-2.79,16.5.85,5.73,4.86,11.5,7.6,16.46q2.25,4.08,4.59,8.1c.51.88,1,2.43,1.85,3.1,1.08.92,3.15,1.32,4.43,2,2.74,1.46,6.15,3.54,7.21,6.65,1.66,4.91-4.51,9.61-8.12,11.78-1.28.77-4.45,1.73-4.65,3.52-.05.45.65.44.7,0,.1-.91,2.2-1.71,2.85-2.08a33.56,33.56,0,0,0,4.35-2.8c2.39-1.89,5.33-4.8,5.79-8,.72-5-5-8.36-8.77-10.21-.76-.38-3.21-1.32-3.33-1.43-1.14-1.1-1.9-3.24-2.68-4.61a194.75,194.75,0,0,1-9.57-18c-3-6.73-1.2-14.14,1.21-20.84.16-.42-.52-.61-.67-.18Z" transform="translate(0)" fill="#b5776d"/><path d="M207.35,167.66a151.14,151.14,0,0,0-10.51,16.44c-6,10.65-11.15,22.11-13.21,34.22-.08.45.6.64.67.19,2.09-12.28,7.36-23.87,13.48-34.64A147.73,147.73,0,0,1,208,168c.27-.36-.34-.71-.61-.36Z" transform="translate(0)" fill="#b5776d"/><path d="M243.41,177.57l9.53,17.56,1.38,2.53c.21.4.82.05.61-.35l-9.53-17.55L244,177.22c-.22-.4-.82,0-.61.35Z" transform="translate(0)" fill="#b5776d"/><path d="M155.29,144.83s13.13-16.62,33.65-10.78c0,0,9.16,4.07,5.78,5.57s-3.76.6-3.76.6S170.83,152.15,155.29,144.83Z" transform="translate(0)" fill="#f4e1dc"/><path d="M155.79,144.87a39.37,39.37,0,0,1,11.64-8.9,26.37,26.37,0,0,1,12.44-3.08c5.7.13,10.82,2.67,15.1,6.33.68.58,1.68-.41,1-1A24.32,24.32,0,0,0,168.3,134a40,40,0,0,0-13.51,9.87c-.59.68.4,1.67,1,1Z" transform="translate(0)" fill="#1d1618"/><path d="M170.47,111.17s17.26-5,25.91,2.64c0,0,2.65,12.74-7.68,6.73,0,0-4.26-2.4-18.23-1.92s-28.15,11.77-28.15,11.77-1.86-5.51,6-10.2S165,111.41,170.47,111.17Z" transform="translate(0)" fill="#84523a"/><g clip-path="url(#a4d5a885-3c9c-47b3-a461-18ec50a93e09)"><path d="M173.2,134.15a8.79,8.79,0,0,0-.45,12.36,8.63,8.63,0,0,0,12.26.58,8.8,8.8,0,0,0,.46-12.37A8.64,8.64,0,0,0,173.2,134.15Z" transform="translate(0)" fill="#52240f"/><path d="M175.09,134.52a6,6,0,0,0-.31,8.41,5.87,5.87,0,0,0,8.34.39,6,6,0,0,0,.32-8.41A5.89,5.89,0,0,0,175.09,134.52Z" transform="translate(0)" fill="#1d1618"/><path d="M183.19,134.71a.78.78,0,0,0,0,1.1.76.76,0,1,0,1.12-1A.76.76,0,0,0,183.19,134.71Z" transform="translate(0)" fill="#fff2ee"/><path d="M168.28,138.69c-2,.57-2,1.64-.06,2.39a12.66,12.66,0,0,0,7,.32c1.95-.57,2-1.65.05-2.4A12.62,12.62,0,0,0,168.28,138.69Z" transform="translate(0)" fill="#fff2ee"/></g><g clip-path="url(#b2b0682d-1733-45f1-a20d-abda510480be)"><path d="M202.45,226.47l16.75-18.39s18.28-.41,21.68-2.83,9-1.85,8.12-2.66c-.56-.55-10.53,6.14-10.53,6.14l5.25,17s17.13,1.7,17.79-7.07-3.07-34.29-3.07-34.29-23.4.94-26.73,10.15c0,0-16.26-8.12-26.58,5.89-12.21,16.58-8.44,13-8.44,13Z" transform="translate(0)" fill="#e95a7e"/><polygon points="217.85 209.25 202.44 226.47 202.92 243.49 247.76 224.25 251.08 204.69 217.85 209.25" fill="#290603"/><path d="M202.15,227.8s19.95-10.22,25.21-6.61c0,0,12.37-5.12,15.65-.85s8.4,33.15,8.4,33.15-30,19.14-45.06-8.6C206.35,244.89,200.32,238.85,202.15,227.8Z" transform="translate(0)" fill="#af3863"/><path d="M211.39,249s26.19,6.3,39-3c0,0,2.84,11.31-11.5,10.94C238.89,257,214.92,262,211.39,249Z" transform="translate(0)" fill="#932b55"/><path d="M200,241s8.29-1.64,12.63,5.25,6.72,11.65,18.13,10,16.26-1.7,17.57-7.36c1.39-6-6.12-29.46-6.12-29.46s1.4-4.58,5.31.15,19.78,39.57-5.22,43.74S214.49,268.93,200,241Z" transform="translate(0)" fill="#fff5ec"/><polygon points="214.75 212.49 250.8 206.34 251.98 201.98 219.2 208.08 214.75 212.49" fill="#fff5ec"/><path d="M202.45,226.47s-.61,25.92,12.77,34.92,40.16-.62,38.83-11.85c-1.36-11.5-4.23-26-4.23-26l6.45-2.27,12.48,43.61s-16.89,17.59-45.41,17.59-39.1-33.82-20.89-56" transform="translate(0)" fill="#d34870"/><path d="M227,221.28l6.17,17.23.88,2.48c.15.42.83.24.68-.19l-6.16-17.22-.89-2.48c-.15-.42-.83-.24-.68.18Z" transform="translate(0)" fill="#932b55"/></g><path d="M420.48,193.13s12.46,22.8,9,42.25c-1,5.76-7.22,20.94-15.76,14.53,0,0-9.19,22-29.12,16.3,0,0-6.1,14.19-17.08,11.39a67.22,67.22,0,0,1-28.34-15s-42.85,37-48.54,51.25-46.92,82.58-46.92,82.58S185.3,507.17,119.53,484.39c0,0-56.92.35-79.22-59.44,0,0-11.63-34.88-13.77-49.83,0,0,0-49.11,86.89-37.73,0,0,13.48,19.94,13.48,24.92l11.39,14.95,84-82L276,234.89l38-40c2.13-6.42,40.74-22.61,40.74-22.61s14.27-17.08,24.22-16.37,14.93-.76,18.49,0,18.51-8.52,24.92-3.54,12.81,13.53,30.61,17.08,40.57,0,40.57,0,14.63,7.21,0,21.38S420.48,193.13,420.48,193.13Z" transform="translate(0)" fill="#dda692"/><path d="M169.19,134.38s3.24.67,4.74-4a1.37,1.37,0,0,1,.55,1.79s3.71-1.23,3.43-3.15c0,0,.71,2.56,0,2.91,0,0,4.37-1.13,4.65-2.91,0,0,1.51,1.59,0,2.69,0,0,1.29.46,3.56-2.69a21,21,0,0,1-1.09,3.15s4.8-1,4-2.46c0,0,1.38,3.65-.09,4.33,0,0-3.76-1.69-10.2-1.24A39.13,39.13,0,0,0,169.19,134.38Z" transform="translate(0)" fill="#1d1618"/><path d="M232.7,126.07s3.36-14.56,22.27-9.31c0,0,8.18,3.73,5.24,5.41a52.53,52.53,0,0,1-28.49,6.64S228.45,128.85,232.7,126.07Z" transform="translate(0)" fill="#f4e1dc"/><path d="M261.4,120.87c-5.41-4.55-12.58-8.3-19.65-5.33a19.12,19.12,0,0,0-8.87,8.25c-.1.17-.2.35-.29.53-.19.34.41-.22-.06,0-1.36.73-2.86,2.25-2.72,3.89.08.89,1.49.9,1.41,0-.16-1.73,2-2.26,2.76-3.55a22.73,22.73,0,0,1,2.26-3.25c3.07-3.6,7.36-6,12.21-5.52,4.52.45,8.56,3.09,12,6,.68.57,1.68-.41,1-1Z" transform="translate(0)" fill="#1d1618"/><g clip-path="url(#aee6f89a-cfe8-43c7-83e5-d71303f9f83d)"><path d="M242.26,117.53a7.81,7.81,0,0,0-.42,11.14,8.1,8.1,0,0,0,11.31.52,7.79,7.79,0,0,0,.42-11.14A8.1,8.1,0,0,0,242.26,117.53Z" transform="translate(0)" fill="#52240f"/><path d="M244.66,118.49a5.29,5.29,0,0,0-.28,7.57,5.5,5.5,0,0,0,7.69.35,5.29,5.29,0,0,0,.28-7.57A5.5,5.5,0,0,0,244.66,118.49Z" transform="translate(0)" fill="#1d1618"/><path d="M251.55,118.41a.69.69,0,0,0,0,1,.71.71,0,0,0,1,0,.69.69,0,0,0,0-1A.71.71,0,0,0,251.55,118.41Z" transform="translate(0)" fill="#fff2ee"/><path d="M240.57,122.77c-1.8.52-1.82,1.49,0,2.16a12,12,0,0,0,6.48.29c1.8-.52,1.82-1.49.05-2.16A11.91,11.91,0,0,0,240.57,122.77Z" transform="translate(0)" fill="#fff2ee"/></g><path d="M241.77,116.29s8.73-1.58,9.7-4.82c0,0,1.76,3.09,0,3.68,0,0,5-.6,6-2.55,0,0,.2,4-2.49,4.16,0,0,4.44.78,5.08-1.61,0,0,.33,2.7-3.07,2.8s-.81,0-.81,0,5.72.53,7.31-3.22c0,0-3.24,6-4.31,5.24A24.76,24.76,0,0,0,241.77,116.29Z" transform="translate(0)" fill="#1d1618"/><path d="M197.86,95.15a50.23,50.23,0,0,1,1.64,6c.66,3.07,1.42,6.83.31,9.89a3.36,3.36,0,0,1-3.43,2.36.42.42,0,0,0,0,.83c3.52.07,4.65-3.13,4.75-6.13a35.68,35.68,0,0,0-1.67-10.6c-.24-.86-.5-1.72-.79-2.57-.18-.5-1-.29-.81.22Z" transform="translate(0)" fill="#b5776d"/><path d="M224.45,89.61a53.71,53.71,0,0,0,.16,8.22c.36,3.94,1,8.61,3.77,11.66.36.39,1-.2.59-.59-2.74-3-3.28-7.84-3.58-11.72a53.12,53.12,0,0,1-.1-7.57c0-.53-.8-.53-.84,0Z" transform="translate(0)" fill="#b5776d"/><path d="M180.78,232.36a135.4,135.4,0,0,0,2.68,20.16c2.1,10.28,5.22,22,12.93,29.59a.42.42,0,0,0,.59-.59c-7.73-7.62-10.77-19.45-12.83-29.77a133.11,133.11,0,0,1-2.53-19.39c0-.53-.87-.54-.84,0Z" transform="translate(0)" fill="#b5776d"/><path d="M260.14,97.41s-8.74-4.75-34.27,6.55c0,0-2.06,3,1.65,12.33,0,0,11.14-12.24,32.62-14.89Z" transform="translate(0)" fill="#84523a"/><g clip-path="url(#be1da0ac-cae6-4b58-a429-5a38b47ab367)"><path d="M357.6,203.29c8.36,17.82,16.8,35.75,23.75,54.17.81,2.16,1.62,4.35,2.26,6.57.27.94,1,2.55.56,3.52-.18.42.5.6.67.19.81-2-1.09-5.67-1.71-7.45-1.81-5.14-3.91-10.18-6-15.2-4.86-11.53-10-22.94-15.26-34.31q-1.8-3.93-3.63-7.85c-.2-.4-.8-.05-.61.36Z" transform="translate(0)" fill="#b5776d"/><path d="M386.71,191c8.36,17.82,16.8,35.75,23.75,54.17.82,2.17,1.63,4.35,2.26,6.58.27.93,1,2.54.56,3.52-.17.42.5.6.67.18.81-2-1.09-5.67-1.71-7.45-1.81-5.14-3.91-10.18-6-15.19-4.86-11.54-10-22.95-15.25-34.32q-1.81-3.93-3.64-7.84c-.19-.41-.8,0-.61.35Z" transform="translate(0)" fill="#b5776d"/><path d="M408.05,169c5.45,10.15,11.53,20.85,17.54,34,.19.41.79,0,.6-.35-5.29-11.58-11.51-22.78-17.53-34-.22-.39-.82,0-.61.36Z" transform="translate(0)" fill="#b5776d"/><path d="M331.76,217.55A84.08,84.08,0,0,0,337.39,234a123.19,123.19,0,0,0,23.05,34.84c.37.4,1-.2.59-.59a122.06,122.06,0,0,1-22.92-34.68,82.55,82.55,0,0,1-5.54-16.24c-.11-.53-.91-.31-.81.22Z" transform="translate(0)" fill="#b5776d"/><path d="M346.8,251.05l-8.24,12.79-1.17,1.82c-.3.45.43.87.72.42l8.24-12.79,1.17-1.82c.29-.45-.43-.87-.72-.42Z" transform="translate(0)" fill="#b5776d"/></g><path d="M154,44.44s11.17-22.15,20.16-16.1a46.67,46.67,0,0,1,13.55,14.18S163,38.92,154,44.44Z" transform="translate(0)" fill="#e29879"/><path d="M187.69,42.52S186.45,19.84,199.5,22,226.72,45.6,226.72,45.6,204.68,28.6,187.69,42.52Z" transform="translate(0)" fill="#e29879"/></svg>